<svg xmlns="http://www.w3.org/2000/svg" viewBox="0 0 240 240">
  <!-- 定义渐变 -->
  <defs>
    <linearGradient id="techGradient" x1="0%" y1="0%" x2="100%" y2="100%">
      <stop offset="0%" style="stop-color:#4A90E2"/>
      <stop offset="100%" style="stop-color:#2B3F87"/>
    </linearGradient>
    
    <linearGradient id="circleGradient" x1="0%" y1="0%" x2="100%" y2="100%">
      <stop offset="0%" style="stop-color:#6A11CB"/>
      <stop offset="100%" style="stop-color:#2575FC"/>
    </linearGradient>
    
    <!-- 发光效果 -->
    <filter id="glow">
      <feGaussianBlur stdDeviation="2" result="coloredBlur"/>
      <feMerge>
        <feMergeNode in="coloredBlur"/>
        <feMergeNode in="SourceGraphic"/>
      </feMerge>
    </filter>
  </defs>

  <!-- 背景六边形 -->
  <path d="M120 40 L200 80 L200 160 L120 200 L40 160 L40 80 Z" 
        fill="none" 
        stroke="url(#techGradient)" 
        stroke-width="2"
        opacity="0.3"/>
  
  <!-- 内部六边形 -->
  <path d="M120 60 L180 90 L180 150 L120 180 L60 150 L60 90 Z" 
        fill="none" 
        stroke="url(#techGradient)" 
        stroke-width="1.5"
        opacity="0.5"/>

  <!-- 电路线条 -->
  <path d="M60 90 L90 90 L90 150 M180 90 L150 90 L150 150" 
        stroke="#4A90E2" 
        stroke-width="1" 
        fill="none"
        opacity="0.6"/>
  
  <!-- 中心图形 -->
  <circle cx="120" cy="120" r="40" 
          fill="url(#circleGradient)" 
          opacity="0.2"/>
  
  <!-- 动态节点 -->
  <circle cx="120" cy="80" r="4" fill="#4A90E2" filter="url(#glow)"/>
  <circle cx="160" cy="120" r="4" fill="#4A90E2" filter="url(#glow)"/>
  <circle cx="120" cy="160" r="4" fill="#4A90E2" filter="url(#glow)"/>
  <circle cx="80" cy="120" r="4" fill="#4A90E2" filter="url(#glow)"/>

  <!-- 中心连接线 -->
  <path d="M120 80 L160 120 L120 160 L80 120 Z" 
        stroke="url(#techGradient)" 
        stroke-width="2" 
        fill="none"/>
        
  <!-- 代码符号 -->
  <path d="M110 110 L100 120 L110 130" 
        stroke="#4A90E2" 
        stroke-width="2" 
        fill="none"/>
  <path d="M130 110 L140 120 L130 130" 
        stroke="#4A90E2" 
        stroke-width="2" 
        fill="none"/>
        
  <!-- 点缀小圆点 -->
  <circle cx="90" cy="90" r="2" fill="#4A90E2"/>
  <circle cx="150" cy="90" r="2" fill="#4A90E2"/>
  <circle cx="90" cy="150" r="2" fill="#4A90E2"/>
  <circle cx="150" cy="150" r="2" fill="#4A90E2"/>
</svg>
